<svg xmlns="http://www.w3.org/2000/svg" viewBox="0 0 64 64" xml:space="preserve" style="fill-rule:evenodd;clip-rule:evenodd;stroke-linecap:round;stroke-linejoin:round;stroke-miterlimit:2"><path d="M32 50V32.7c0-4.982 1.796-9.797 5.059-13.561l1.301-1.502" style="fill:none;stroke:#222a33;stroke-width:1.5px"/><circle cx="32" cy="53" r="2.5" style="fill:none;stroke:#222a33;stroke-width:1.5px"/><circle cx="44" cy="50" r="2.5" style="fill:none;stroke:#222a33;stroke-width:1.5px"/><circle cx="22.5" cy="47" r="2.5" style="fill:none;stroke:#222a33;stroke-width:1.5px"/><path d="m32 30.912-.421-3.791a10.566 10.566 0 0 0-3.232-6.5l-6.523-6.185" style="fill:none;stroke:#222a33;stroke-width:1.5px"/><path d="M29.363 21.584s1.283-4.629-1.179-8.481c-1.79-2.8-8.598-4.442-12.181-5.13a2.02 2.02 0 0 0-2.393 1.982c.011 2.687.613 7.168 3.974 10.781 5.16 5.548 9.752 3.392 9.752 3.392M34.572 22.008s-1.609-3.432-.203-6.754c.961-2.269 5.502-4.327 8.284-5.405a2.017 2.017 0 0 1 2.727 1.61c.262 2.132.195 5.362-1.755 8.332-3.282 4.999-7.139 3.928-7.139 3.928M26.214 18.598h-4.857M32 32.5 22.5 41v3M32 37.5 44 41v6.5" style="fill:none;stroke:#222a33;stroke-width:1.5px"/></svg>